<?xml version="1.0" standalone="no"?>
<!DOCTYPE svg PUBLIC "-//W3C//DTD SVG 20010904//EN"
 "http://www.w3.org/TR/2001/REC-SVG-20010904/DTD/svg10.dtd">
<svg version="1.0" xmlns="http://www.w3.org/2000/svg"
 width="200.000000pt" height="200.000000pt" viewBox="0 0 200.000000 200.000000"
 preserveAspectRatio="xMidYMid meet">
<metadata>
Created by potrace 1.14, written by Peter Selinger 2001-2017
</metadata>
<g transform="translate(0.000000,200.000000) scale(0.100000,-0.100000)"
fill="#000000" stroke="none">
<path d="M0 1500 l0 -500 135 0 135 0 10 -26 c14 -37 12 -81 -6 -115 -17 -33
-81 -68 -125 -69 l-26 0 13 -62 c7 -35 16 -85 19 -112 l7 -48 46 7 c127 17
210 73 259 173 25 51 28 68 28 154 l0 98 47 0 48 0 0 -57 c1 -149 55 -279 160
-383 126 -125 277 -181 490 -182 105 0 139 4 213 26 92 27 154 56 224 104 l43
28 -31 42 -30 41 -47 -29 c-144 -88 -345 -121 -517 -85 -150 32 -270 119 -325
238 -30 64 -59 210 -47 241 5 13 23 16 96 16 l89 0 0 -87 c-1 -95 15 -148 55
-191 40 -43 77 -56 162 -56 88 -1 121 11 173 64 l31 30 13 -26 c34 -70 128
-91 245 -55 120 36 224 140 269 269 l19 52 62 0 63 0 0 500 0 500 -1000 0
-1000 0 0 -500z m1330 -566 c-29 -106 -75 -154 -157 -161 -42 -4 -54 -1 -78
19 -23 20 -29 35 -33 81 -2 31 -1 72 2 92 l7 35 139 0 139 0 -19 -66z m400 56
c0 -17 -41 -93 -68 -125 -60 -73 -160 -109 -193 -69 -13 16 -7 66 21 167 l11
37 114 0 c73 0 115 -4 115 -10z"/>
</g>
</svg>
